<?xml version="1.0" encoding="utf-8"?>
<!-- Generator: Adobe Illustrator 28.1.0, SVG Export Plug-In . SVG Version: 6.00 Build 0)  -->
<svg version="1.1" id="Capa_1" xmlns="http://www.w3.org/2000/svg" xmlns:xlink="http://www.w3.org/1999/xlink" x="0px" y="0px"
	 viewBox="0 0 160 50" style="enable-background:new 0 0 160 50;" xml:space="preserve">
<style type="text/css">
	.st0{fill:#E4C590;}
	.st1{fill-rule:evenodd;clip-rule:evenodd;fill:#E4C590;}
	.st2{fill:none;stroke:#FFFFFF;stroke-width:0.5;stroke-miterlimit:10;}
	.st3{fill:#FFFFFF;}
</style>
<path class="st0" d="M54,44.5v-7.7h2.7c0.6,0,1.1,0.1,1.5,0.3c0.4,0.2,0.7,0.5,0.9,0.8c0.2,0.3,0.3,0.7,0.3,1.2
	c0,0.5-0.1,0.9-0.4,1.3c-0.2,0.4-0.6,0.7-1.2,0.8l1.6,3.3H58l-1.5-3.1h-1.4v3.1H54z M55.2,40.5h1.4c0.5,0,0.9-0.1,1.2-0.4
	c0.2-0.3,0.4-0.6,0.4-1c0-0.4-0.1-0.7-0.4-1c-0.2-0.2-0.6-0.4-1.2-0.4h-1.4V40.5z"/>
<path class="st0" d="M64.7,44.5v-7.7h4.9v0.9h-3.7v2.4h3.4V41h-3.4v2.5h3.7v0.9H64.7z"/>
<path class="st0" d="M77.4,44.6c-0.6,0-1.1-0.1-1.5-0.3c-0.4-0.2-0.8-0.5-1-0.8c-0.2-0.4-0.4-0.8-0.4-1.3h1.2c0,0.4,0.2,0.8,0.4,1
	c0.3,0.3,0.7,0.4,1.2,0.4c0.4,0,0.8-0.1,1-0.3c0.3-0.2,0.4-0.5,0.4-0.8c0-0.3-0.1-0.5-0.2-0.7c-0.1-0.2-0.3-0.3-0.5-0.4
	c-0.2-0.1-0.4-0.2-0.7-0.3c-0.3-0.1-0.6-0.2-0.9-0.3c-0.6-0.2-1-0.5-1.3-0.8c-0.3-0.3-0.4-0.7-0.4-1.2c0-0.4,0.1-0.8,0.3-1.1
	c0.2-0.3,0.5-0.6,0.9-0.7c0.4-0.2,0.8-0.3,1.3-0.3c0.5,0,0.9,0.1,1.3,0.3c0.4,0.2,0.7,0.4,0.9,0.8c0.2,0.3,0.3,0.7,0.3,1.1h-1.2
	c0-0.2-0.1-0.4-0.2-0.6c-0.1-0.2-0.3-0.3-0.5-0.5c-0.2-0.1-0.4-0.2-0.7-0.2c-0.4,0-0.7,0.1-0.9,0.3c-0.2,0.2-0.4,0.5-0.4,0.8
	c0,0.3,0.1,0.5,0.3,0.7c0.2,0.2,0.4,0.3,0.7,0.4c0.3,0.1,0.7,0.2,1.1,0.4c0.4,0.1,0.7,0.3,1,0.5c0.3,0.2,0.5,0.4,0.7,0.7
	c0.2,0.3,0.3,0.6,0.3,1.1c0,0.4-0.1,0.8-0.3,1.1c-0.2,0.3-0.5,0.6-0.9,0.8C78.5,44.5,78,44.6,77.4,44.6z"/>
<path class="st0" d="M87,44.5v-6.8h-2.3v-0.9h5.7v0.9h-2.3v6.8H87z"/>
<path class="st0" d="M94.1,44.5l2.8-7.7h1.3l2.8,7.7h-1.2l-0.7-1.9H96l-0.7,1.9H94.1z M96.4,41.7h2.5l-1.2-3.5L96.4,41.7z"/>
<path class="st0" d="M108.7,44.6c-0.6,0-1-0.1-1.5-0.3c-0.4-0.2-0.8-0.6-1.1-1c-0.3-0.4-0.4-1-0.4-1.7v-4.8h1.2v4.8
	c0,0.7,0.2,1.2,0.5,1.5c0.3,0.3,0.8,0.5,1.3,0.5c0.5,0,1-0.2,1.3-0.5c0.3-0.3,0.5-0.8,0.5-1.5v-4.8h1.2v4.8c0,0.7-0.1,1.3-0.4,1.7
	c-0.3,0.4-0.6,0.8-1.1,1C109.7,44.5,109.2,44.6,108.7,44.6z"/>
<path class="st0" d="M117.1,44.5v-7.7h2.7c0.6,0,1.1,0.1,1.5,0.3c0.4,0.2,0.7,0.5,0.9,0.8c0.2,0.3,0.3,0.7,0.3,1.2
	c0,0.5-0.1,0.9-0.4,1.3c-0.2,0.4-0.6,0.7-1.2,0.8l1.6,3.3h-1.4l-1.5-3.1h-1.4v3.1H117.1z M118.2,40.5h1.4c0.5,0,0.9-0.1,1.2-0.4
	c0.2-0.3,0.4-0.6,0.4-1c0-0.4-0.1-0.7-0.4-1c-0.2-0.2-0.6-0.4-1.2-0.4h-1.4V40.5z"/>
<path class="st0" d="M127.2,44.5l2.8-7.7h1.3l2.8,7.7h-1.2l-0.7-1.9h-3.1l-0.7,1.9H127.2z M129.5,41.7h2.5l-1.2-3.5L129.5,41.7z"/>
<path class="st0" d="M139.2,44.5v-7.7h1.2l3.9,5.8v-5.8h1.2v7.7h-1.2l-3.9-5.8v5.8H139.2z"/>
<path class="st0" d="M152.7,44.5v-6.8h-2.3v-0.9h5.7v0.9h-2.3v6.8H152.7z"/>
<path class="st1" d="M32.5,42.6C29.7,44.1,26.4,45,23,45C12,45,3,36,3,25S12,5,23,5c3.1,0,5.9,0.7,8.5,1.9c-0.2,0.2-0.3,0.4-0.5,0.7
	c-0.7,1.1-1.2,2.5-1.6,3.9c-2-0.9-4.2-1.5-6.5-1.5c-8.3,0-15,6.7-15,15s6.7,15,15,15c4.3,0,8.2-1.8,10.9-4.7
	c-0.3,1.1-0.7,2.3-1.3,3.6c-0.4,0.9-0.5,1.5-0.5,2.5C32.1,41.9,32.3,42.2,32.5,42.6z M29,14.6c-0.2,3.7,1,7.3,4.1,8.6
	c1,0.9,1.6,2,1.6,3.4c0,0.3,0,0.6,0,0.9c-1.2,5.4-6,9.5-11.7,9.5c-6.6,0-12-5.4-12-12s5.4-12,12-12C25.2,13,27.2,13.6,29,14.6z"/>
<path class="st0" d="M41.8,22.9c5-2.3,4.8-9.7,2-14.3c-2.8-4.7-7-4.8-9.9,0c-2.8,4.6-3,12,2,14.3c0.9,0.9,1.6,2.6,1.6,3.9
	c0,4.2,0.3,7.5-1.9,12.3c-0.4,0.9-0.6,1.5-0.6,2.1c0,2.1,1.7,3.8,3.8,3.8c2.1,0,3.8-1.7,3.8-3.8c0-0.5-0.2-1.2-0.6-2.1
	c-2.2-4.9-1.9-8.4-1.9-12.3C40.1,25.4,40.8,23.7,41.8,22.9z"/>
<g>
	<path class="st2" d="M54.2,32.9h0.2c0.2,0,0.3-0.1,0.5-0.2c0.2-0.2,0.3-0.3,0.4-0.5c0.1-0.2,0.2-0.4,0.3-0.7
		c0.1-0.2,0.1-0.5,0.1-0.7V10.2c0-0.2,0-0.4-0.1-0.6c-0.1-0.2-0.1-0.5-0.3-0.7c-0.1-0.2-0.3-0.4-0.4-0.5c-0.2-0.1-0.4-0.2-0.6-0.2
		h-0.2V7.7h6.4c2.4,0,4.3,0.5,5.6,1.6c1.4,1.1,2,2.5,2,4.2c0,0.8-0.1,1.4-0.4,2c-0.3,0.6-0.6,1.1-1,1.6c-0.4,0.5-0.8,0.9-1.3,1.2
		c-0.5,0.3-0.9,0.6-1.3,0.8c1.1,0.2,2,0.6,2.7,1c0.7,0.5,1.3,1.1,1.8,1.7c0.4,0.6,0.8,1.3,0.9,2c0.2,0.7,0.3,1.4,0.3,2.1
		c0,1.3-0.2,2.5-0.7,3.4s-1.1,1.7-2,2.2c-0.8,0.6-1.7,1-2.8,1.3c-1,0.3-2.1,0.4-3.2,0.4h-6.9V32.9z M65.6,13.9
		c-0.1-1.5-0.6-2.7-1.6-3.6c-1-0.9-2.3-1.3-3.9-1.3h-1.9v9.8h2c1.1,0,2-0.1,2.7-0.4c0.7-0.3,1.2-0.7,1.6-1.1c0.4-0.5,0.7-1,0.9-1.5
		s0.2-1.1,0.2-1.6V13.9z M67.2,26.3c-0.2-2-0.9-3.5-2-4.6c-1.1-1.1-2.7-1.6-4.8-1.6h-2.2v12.1h2.2c2.1,0,3.7-0.5,4.9-1.4
		c1.2-0.9,1.8-2.3,1.8-3.9V26.3z"/>
	<path class="st2" d="M89.5,32.9h0.2c0.6,0,0.9-0.3,0.9-0.9c0-0.2,0-0.4-0.1-0.7L87,22h-6.8l-3.4,9.3c-0.1,0.2-0.1,0.4-0.1,0.6
		c0,0.3,0.1,0.6,0.3,0.8c0.2,0.2,0.4,0.3,0.6,0.3h0.2v0.4h-4.3v-0.4h0.2c0.3,0,0.7-0.2,1-0.6c0.3-0.4,0.6-0.9,0.8-1.4l8.9-23.7
		L93,30.7c0.2,0.5,0.4,1,0.8,1.5c0.3,0.5,0.7,0.7,1.3,0.7h0.2v0.4h-5.7V32.9z M80.6,20.7h6l-3-8.1L80.6,20.7z"/>
	<path class="st2" d="M114.6,32.9h0.2c0.2,0,0.3-0.1,0.5-0.2c0.2-0.1,0.3-0.3,0.4-0.5c0.1-0.2,0.2-0.5,0.3-0.7s0.1-0.5,0.1-0.7V20.2
		h-12.4v10.5c0,0.2,0,0.4,0.1,0.7s0.1,0.5,0.2,0.7s0.2,0.4,0.4,0.5c0.1,0.2,0.3,0.2,0.5,0.2h0.2v0.4h-5.4v-0.4h0.2
		c0.2,0,0.3-0.1,0.5-0.2c0.2-0.1,0.3-0.3,0.4-0.5c0.1-0.2,0.2-0.5,0.3-0.7c0.1-0.2,0.1-0.5,0.1-0.7V10.1c0-0.2,0-0.4-0.1-0.6
		c-0.1-0.2-0.1-0.5-0.2-0.7c-0.1-0.2-0.2-0.4-0.4-0.5s-0.3-0.2-0.5-0.2h-0.2V7.7h5.4v0.4h-0.2c-0.2,0-0.4,0.1-0.5,0.2
		s-0.3,0.3-0.4,0.5c-0.1,0.2-0.2,0.4-0.2,0.7s-0.1,0.4-0.1,0.6v8.8H116v-8.8c0-0.2,0-0.4-0.1-0.6s-0.1-0.5-0.2-0.7
		c-0.1-0.2-0.2-0.4-0.4-0.5s-0.3-0.2-0.5-0.2h-0.2V7.7h5.4v0.4h-0.2c-0.2,0-0.4,0.1-0.5,0.2c-0.2,0.1-0.3,0.3-0.4,0.5
		c-0.1,0.2-0.2,0.4-0.2,0.7s-0.1,0.4-0.1,0.6v20.7c0,0.2,0,0.4,0.1,0.7c0.1,0.2,0.1,0.5,0.3,0.7c0.1,0.2,0.2,0.4,0.4,0.5
		c0.1,0.2,0.3,0.2,0.5,0.2h0.2v0.4h-5.4V32.9z"/>
	<path class="st2" d="M125,7.7h5.5v0.4h-0.2c-0.2,0-0.3,0.1-0.5,0.2s-0.3,0.3-0.4,0.5s-0.2,0.4-0.3,0.7c-0.1,0.2-0.1,0.5-0.1,0.6
		v20.7c0,0.2,0,0.4,0.1,0.7s0.1,0.5,0.3,0.7s0.2,0.4,0.4,0.5c0.1,0.2,0.3,0.2,0.5,0.2h0.2v0.4H125v-0.4h0.2c0.2,0,0.4-0.1,0.5-0.2
		c0.2-0.1,0.3-0.3,0.4-0.5c0.1-0.2,0.2-0.5,0.3-0.7c0.1-0.2,0.1-0.5,0.1-0.7V10.1c0-0.2,0-0.4-0.1-0.6c-0.1-0.2-0.1-0.5-0.3-0.7
		c-0.1-0.2-0.3-0.4-0.4-0.5c-0.2-0.1-0.3-0.2-0.5-0.2H125V7.7z"/>
	<path class="st2" d="M150.6,32.9h0.2c0.6,0,0.9-0.3,0.9-0.9c0-0.2,0-0.4-0.1-0.7l-3.5-9.4h-6.8l-3.4,9.3c-0.1,0.2-0.1,0.4-0.1,0.6
		c0,0.3,0.1,0.6,0.3,0.8c0.2,0.2,0.4,0.3,0.6,0.3h0.2v0.4h-4.3v-0.4h0.2c0.3,0,0.7-0.2,1-0.6c0.3-0.4,0.6-0.9,0.8-1.4l8.9-23.7
		l8.7,23.4c0.2,0.5,0.4,1,0.8,1.5c0.3,0.5,0.7,0.7,1.3,0.7h0.2v0.4h-5.7V32.9z M141.7,20.7h6l-3-8.1L141.7,20.7z"/>
</g>
<g>
	<path class="st3" d="M54.2,32.9h0.2c0.2,0,0.3-0.1,0.5-0.2c0.2-0.2,0.3-0.3,0.4-0.5c0.1-0.2,0.2-0.4,0.3-0.7
		c0.1-0.2,0.1-0.5,0.1-0.7V10.2c0-0.2,0-0.4-0.1-0.6c-0.1-0.2-0.1-0.5-0.3-0.7c-0.1-0.2-0.3-0.4-0.4-0.5c-0.2-0.1-0.4-0.2-0.6-0.2
		h-0.2V7.7h6.4c2.4,0,4.3,0.5,5.6,1.6c1.4,1.1,2,2.5,2,4.2c0,0.8-0.1,1.4-0.4,2c-0.3,0.6-0.6,1.1-1,1.6c-0.4,0.5-0.8,0.9-1.3,1.2
		c-0.5,0.3-0.9,0.6-1.3,0.8c1.1,0.2,2,0.6,2.7,1c0.7,0.5,1.3,1.1,1.8,1.7c0.4,0.6,0.8,1.3,0.9,2c0.2,0.7,0.3,1.4,0.3,2.1
		c0,1.3-0.2,2.5-0.7,3.4s-1.1,1.7-2,2.2c-0.8,0.6-1.7,1-2.8,1.3c-1,0.3-2.1,0.4-3.2,0.4h-6.9V32.9z M65.6,13.9
		c-0.1-1.5-0.6-2.7-1.6-3.6c-1-0.9-2.3-1.3-3.9-1.3h-1.9v9.8h2c1.1,0,2-0.1,2.7-0.4c0.7-0.3,1.2-0.7,1.6-1.1c0.4-0.5,0.7-1,0.9-1.5
		s0.2-1.1,0.2-1.6V13.9z M67.2,26.3c-0.2-2-0.9-3.5-2-4.6c-1.1-1.1-2.7-1.6-4.8-1.6h-2.2v12.1h2.2c2.1,0,3.7-0.5,4.9-1.4
		c1.2-0.9,1.8-2.3,1.8-3.9V26.3z"/>
	<path class="st3" d="M89.5,32.9h0.2c0.6,0,0.9-0.3,0.9-0.9c0-0.2,0-0.4-0.1-0.7L87,22h-6.8l-3.4,9.3c-0.1,0.2-0.1,0.4-0.1,0.6
		c0,0.3,0.1,0.6,0.3,0.8c0.2,0.2,0.4,0.3,0.6,0.3h0.2v0.4h-4.3v-0.4h0.2c0.3,0,0.7-0.2,1-0.6c0.3-0.4,0.6-0.9,0.8-1.4l8.9-23.7
		L93,30.7c0.2,0.5,0.4,1,0.8,1.5c0.3,0.5,0.7,0.7,1.3,0.7h0.2v0.4h-5.7V32.9z M80.6,20.7h6l-3-8.1L80.6,20.7z"/>
	<path class="st3" d="M114.6,32.9h0.2c0.2,0,0.3-0.1,0.5-0.2c0.2-0.1,0.3-0.3,0.4-0.5c0.1-0.2,0.2-0.5,0.3-0.7s0.1-0.5,0.1-0.7V20.2
		h-12.4v10.5c0,0.2,0,0.4,0.1,0.7s0.1,0.5,0.2,0.7s0.2,0.4,0.4,0.5c0.1,0.2,0.3,0.2,0.5,0.2h0.2v0.4h-5.4v-0.4h0.2
		c0.2,0,0.3-0.1,0.5-0.2c0.2-0.1,0.3-0.3,0.4-0.5c0.1-0.2,0.2-0.5,0.3-0.7c0.1-0.2,0.1-0.5,0.1-0.7V10.1c0-0.2,0-0.4-0.1-0.6
		c-0.1-0.2-0.1-0.5-0.2-0.7c-0.1-0.2-0.2-0.4-0.4-0.5s-0.3-0.2-0.5-0.2h-0.2V7.7h5.4v0.4h-0.2c-0.2,0-0.4,0.1-0.5,0.2
		s-0.3,0.3-0.4,0.5c-0.1,0.2-0.2,0.4-0.2,0.7s-0.1,0.4-0.1,0.6v8.8H116v-8.8c0-0.2,0-0.4-0.1-0.6s-0.1-0.5-0.2-0.7
		c-0.1-0.2-0.2-0.4-0.4-0.5s-0.3-0.2-0.5-0.2h-0.2V7.7h5.4v0.4h-0.2c-0.2,0-0.4,0.1-0.5,0.2c-0.2,0.1-0.3,0.3-0.4,0.5
		c-0.1,0.2-0.2,0.4-0.2,0.7s-0.1,0.4-0.1,0.6v20.7c0,0.2,0,0.4,0.1,0.7c0.1,0.2,0.1,0.5,0.3,0.7c0.1,0.2,0.2,0.4,0.4,0.5
		c0.1,0.2,0.3,0.2,0.5,0.2h0.2v0.4h-5.4V32.9z"/>
	<path class="st3" d="M125,7.7h5.5v0.4h-0.2c-0.2,0-0.3,0.1-0.5,0.2s-0.3,0.3-0.4,0.5s-0.2,0.4-0.3,0.7c-0.1,0.2-0.1,0.5-0.1,0.6
		v20.7c0,0.2,0,0.4,0.1,0.7s0.1,0.5,0.3,0.7s0.2,0.4,0.4,0.5c0.1,0.2,0.3,0.2,0.5,0.2h0.2v0.4H125v-0.4h0.2c0.2,0,0.4-0.1,0.5-0.2
		c0.2-0.1,0.3-0.3,0.4-0.5c0.1-0.2,0.2-0.5,0.3-0.7c0.1-0.2,0.1-0.5,0.1-0.7V10.1c0-0.2,0-0.4-0.1-0.6c-0.1-0.2-0.1-0.5-0.3-0.7
		c-0.1-0.2-0.3-0.4-0.4-0.5c-0.2-0.1-0.3-0.2-0.5-0.2H125V7.7z"/>
	<path class="st3" d="M150.6,32.9h0.2c0.6,0,0.9-0.3,0.9-0.9c0-0.2,0-0.4-0.1-0.7l-3.5-9.4h-6.8l-3.4,9.3c-0.1,0.2-0.1,0.4-0.1,0.6
		c0,0.3,0.1,0.6,0.3,0.8c0.2,0.2,0.4,0.3,0.6,0.3h0.2v0.4h-4.3v-0.4h0.2c0.3,0,0.7-0.2,1-0.6c0.3-0.4,0.6-0.9,0.8-1.4l8.9-23.7
		l8.7,23.4c0.2,0.5,0.4,1,0.8,1.5c0.3,0.5,0.7,0.7,1.3,0.7h0.2v0.4h-5.7V32.9z M141.7,20.7h6l-3-8.1L141.7,20.7z"/>
</g>
</svg>
